<svg data-v-fde0c5aa="" xmlns="http://www.w3.org/2000/svg" viewBox="0 0 300 300" class="font"><!----><defs data-v-fde0c5aa=""><!----></defs><rect data-v-fde0c5aa="" fill="transparent" x="0" y="0" width="300px" height="300px" class="logo-background-square"></rect><defs data-v-fde0c5aa=""><linearGradient data-v-fde0c5aa="" gradientTransform="rotate(25)" id="041da2c0-6993-4b91-be61-d7bbc0bb5f92" x1="0%" y1="0%" x2="100%" y2="0%"><stop data-v-fde0c5aa="" offset="0%" stop-color="#C06D69" stop-opacity="1"></stop><stop data-v-fde0c5aa="" offset="100%" stop-color="#D2B05C" stop-opacity="1"></stop></linearGradient></defs><g data-v-fde0c5aa="" id="55eb538e-9ef8-40c1-b9c3-4ce62d86cbb3" fill="url(#041da2c0-6993-4b91-be61-d7bbc0bb5f92)" transform="matrix(8.551548901809667,0,0,8.551548901809667,36.37699361814584,66.4513673924274)"><path d="M6.34 8.96L6.34 8.96L6.34 8.96Q6.23 8.57 5.92 8.30L5.92 8.30L5.92 8.30Q5.60 8.04 5.18 7.90L5.18 7.90L5.18 7.90Q4.76 7.77 4.28 7.78L4.28 7.78L4.28 7.78Q3.81 7.78 3.38 7.97L3.38 7.97L3.38 7.97Q2.95 8.15 2.63 8.51L2.63 8.51L2.63 8.51Q2.31 8.86 2.18 9.41L2.18 9.41L2.18 9.41Q2.09 9.86 2.16 10.32L2.16 10.32L2.16 10.32Q2.23 10.78 2.48 11.15L2.48 11.15L2.48 11.15Q2.73 11.52 3.16 11.76L3.16 11.76L3.16 11.76Q3.58 12.00 4.19 12.00L4.19 12.00L4.19 12.00Q5.32 12.00 5.95 11.17L5.95 11.17L7.28 12.14L7.28 12.14Q6.22 13.64 4.21 13.64L4.21 13.64L4.21 13.64Q3.16 13.64 2.40 13.24L2.40 13.24L2.40 13.24Q1.64 12.84 1.16 12.20L1.16 12.20L1.16 12.20Q0.69 11.56 0.52 10.77L0.52 10.77L0.52 10.77Q0.35 9.98 0.48 9.21L0.48 9.21L0.48 9.21Q0.62 8.43 1.06 7.74L1.06 7.74L1.06 7.74Q1.51 7.04 2.28 6.61L2.28 6.61L2.28 6.61Q2.86 6.29 3.51 6.17L3.51 6.17L3.51 6.17Q4.16 6.05 4.82 6.15L4.82 6.15L4.82 6.15Q5.68 6.27 6.17 6.66L6.17 6.66L6.17 6.66Q6.65 7.06 6.80 7.51L6.80 7.51L6.80 7.51Q6.96 7.97 6.83 8.38L6.83 8.38L6.83 8.38Q6.69 8.79 6.34 8.96ZM10.16 3.72L10.16 3.72L10.16 13.52L8.40 13.52L8.40 5.15L8.40 5.15Q8.40 4.48 8.88 4.10L8.88 4.10L8.88 4.10Q9.35 3.71 10.16 3.72ZM11.84 13.52L11.84 7.74L11.84 7.74Q11.87 7.32 12.02 7.04L12.02 7.04L12.02 7.04Q12.17 6.76 12.40 6.59L12.40 6.59L12.40 6.59Q12.64 6.43 12.96 6.35L12.96 6.35L12.96 6.35Q13.27 6.27 13.65 6.27L13.65 6.27L13.65 13.52L11.84 13.52ZM12.75 3.29L12.75 3.29L12.75 3.29Q13.23 3.29 13.57 3.64L13.57 3.64L13.57 3.64Q13.92 3.98 13.92 4.47L13.92 4.47L13.92 4.47Q13.92 4.96 13.58 5.31L13.58 5.31L13.58 5.31Q13.38 5.50 13.13 5.58L13.13 5.58L13.13 5.58Q12.87 5.66 12.61 5.73L12.61 5.73L12.61 5.73Q12.35 5.81 12.13 5.92L12.13 5.92L12.13 5.92Q11.91 6.02 11.83 6.26L11.83 6.26L11.83 6.26Q11.76 6.03 11.68 5.68L11.68 5.68L11.68 5.68Q11.61 5.33 11.59 4.96L11.59 4.96L11.59 4.96Q11.56 4.58 11.63 4.22L11.63 4.22L11.63 4.22Q11.69 3.86 11.93 3.63L11.93 3.63L11.93 3.63Q12.26 3.29 12.75 3.29ZM17.12 6.29L17.12 7.07L17.12 7.07Q17.64 6.55 18.26 6.31L18.26 6.31L18.26 6.31Q18.89 6.08 19.52 6.10L19.52 6.10L19.52 6.10Q20.15 6.13 20.73 6.40L20.73 6.40L20.73 6.40Q21.32 6.66 21.77 7.15L21.77 7.15L21.77 7.15Q22.22 7.64 22.49 8.34L22.49 8.34L22.49 8.34Q22.76 9.03 22.76 9.90L22.76 9.90L22.76 9.90Q22.76 10.74 22.47 11.44L22.47 11.44L22.47 11.44Q22.18 12.14 21.69 12.64L21.69 12.64L21.69 12.64Q21.20 13.15 20.56 13.42L20.56 13.42L20.56 13.42Q19.92 13.69 19.25 13.66L19.25 13.66L19.25 13.66Q18.55 13.64 18.14 13.36L18.14 13.36L18.14 13.36Q17.74 13.09 17.56 12.73L17.56 12.73L17.56 12.73Q17.37 12.38 17.37 12.01L17.37 12.01L17.37 12.01Q17.37 11.63 17.50 11.41L17.50 11.41L17.50 11.41Q17.63 11.58 17.80 11.70L17.80 11.70L17.80 11.70Q17.98 11.82 18.18 11.88L18.18 11.88L18.18 11.88Q18.38 11.94 18.60 11.97L18.60 11.97L18.60 11.97Q18.82 12.00 19.01 12.00L19.01 12.00L19.01 12.00Q19.66 12.00 20.09 11.68L20.09 11.68L20.09 11.68Q20.52 11.37 20.74 10.90L20.74 10.90L20.74 10.90Q20.96 10.43 20.96 9.88L20.96 9.88L20.96 9.88Q20.96 9.32 20.75 8.86L20.75 8.86L20.75 8.86Q20.54 8.39 20.10 8.07L20.10 8.07L20.10 8.07Q19.67 7.76 19.01 7.76L19.01 7.76L19.01 7.76Q18.47 7.76 18.10 8.01L18.10 8.01L18.10 8.01Q17.74 8.26 17.52 8.66L17.52 8.66L17.52 8.66Q17.30 9.06 17.21 9.55L17.21 9.55L17.21 9.55Q17.12 10.04 17.12 10.53L17.12 10.53L17.12 16.25L15.32 16.25L15.32 7.74L15.32 7.74Q15.32 7.38 15.46 7.10L15.46 7.10L15.46 7.10Q15.61 6.82 15.86 6.63L15.86 6.63L15.86 6.63Q16.11 6.44 16.44 6.36L16.44 6.36L16.44 6.36Q16.76 6.27 17.12 6.29L17.12 6.29ZM24.14 9.34L24.14 3.72L25.90 3.72L25.90 10.77L25.90 10.77Q25.54 10.77 25.23 10.70L25.23 10.70L25.23 10.70Q24.92 10.63 24.68 10.46L24.68 10.46L24.68 10.46Q24.44 10.30 24.30 10.03L24.30 10.03L24.30 10.03Q24.16 9.76 24.14 9.34L24.14 9.34ZM25.03 13.66L25.03 13.66L25.03 13.66Q24.56 13.66 24.23 13.34L24.23 13.34L24.23 13.34Q24.01 13.12 23.94 12.77L23.94 12.77L23.94 12.77Q23.87 12.42 23.89 12.05L23.89 12.05L23.89 12.05Q23.91 11.68 23.99 11.33L23.99 11.33L23.99 11.33Q24.07 10.99 24.12 10.78L24.12 10.78L24.12 10.78Q24.21 11.02 24.42 11.12L24.42 11.12L24.42 11.12Q24.63 11.23 24.88 11.30L24.88 11.30L24.88 11.30Q25.13 11.37 25.39 11.45L25.39 11.45L25.39 11.45Q25.65 11.54 25.83 11.72L25.83 11.72L25.83 11.72Q26.15 12.07 26.15 12.52L26.15 12.52L26.15 12.52Q26.15 12.99 25.82 13.33L25.82 13.33L25.82 13.33Q25.49 13.66 25.03 13.66Z"></path></g><!----><!----></svg>